<?xml version="1.0" encoding="UTF-8"?>
<svg version="1.1" xmlns="http://www.w3.org/2000/svg" width="1000" height="337">
<path d="M0 0 C31 0 31 0 38.0625 6.8125 C39.58837891 9.15795898 39.58837891 9.15795898 40.5390625 11.24609375 C43.1159026 16.42008929 46.43099271 20.79901507 49.9375 25.375 C51.1148268 26.965687 52.28799976 28.55945668 53.45703125 30.15625 C54.0392041 30.9503125 54.62137695 31.744375 55.22119141 32.5625 C58.75110716 37.39954074 62.25059786 42.25872385 65.73803711 47.12646484 C68.40036425 50.83276637 71.10567102 54.46864167 74 58 C80.8794204 48.69978333 87.74186701 39.38885783 94.5 30 C99.19836238 23.47724257 103.92730427 16.97779212 108.6875 10.5 C109.28820312 9.68015625 109.88890625 8.8603125 110.5078125 8.015625 C111.06597656 7.25765625 111.62414062 6.4996875 112.19921875 5.71875 C112.69252686 5.04779297 113.18583496 4.37683594 113.6940918 3.68554688 C115 2 115 2 117 0 C126.9 0 136.8 0 147 0 C147 45.87 147 91.74 147 139 C138.09 139 129.18 139 120 139 C119.67 106.99 119.34 74.98 119 42 C115.04 47.28 111.08 52.56 107 58 C101 66 101 66 98.01953125 69.97265625 C95.42452698 73.4323799 92.83385942 76.89532874 90.24462891 80.359375 C88.73224041 82.37779 87.2121275 84.39020377 85.69140625 86.40234375 C84.04995662 88.57893683 82.46411153 90.76740826 80.90234375 93.00390625 C80.31582031 93.82761719 79.72929688 94.65132813 79.125 95.5 C78.65320313 96.1909375 78.18140625 96.881875 77.6953125 97.59375 C76 99 76 99 73.1796875 99.70703125 C68.23054209 98.6065456 66.68658322 95.27782295 64 91.1875 C62.8555399 89.52379411 61.7096599 87.86106423 60.5625 86.19921875 C59.97597656 85.33731934 59.38945313 84.47541992 58.78515625 83.58740234 C55.95492678 79.4852727 52.9761304 75.49683844 50 71.5 C45.2131347 65.026456 40.46406091 58.52675473 35.75 52 C35.20085938 51.24009766 34.65171875 50.48019531 34.0859375 49.69726562 C32.01312737 46.82216223 29.96645415 43.94968123 28 41 C27.67 73.34 27.34 105.68 27 139 C18.09 139 9.18 139 0 139 C0 93.13 0 47.26 0 0 Z " fill="#363636" transform="translate(664,59)"/>
<path d="M0 0 C17.82 0 35.64 0 54 0 C54 44.22 54 88.44 54 134 C9.78 134 -34.44 134 -80 134 C-80 116.18 -80 98.36 -80 80 C-53.6 80 -27.2 80 0 80 C0 53.6 0 27.2 0 0 Z " fill="#12BCBC" transform="translate(228,161)"/>
<path d="M0 0 C43.89 0 87.78 0 133 0 C133 17.49 133 34.98 133 53 C106.27 53.33 79.54 53.66 52 54 C52 79.74 52 105.48 52 132 C34.84 132 17.68 132 0 132 C0 88.44 0 44.88 0 0 Z " fill="#1C64B0" transform="translate(40,53)"/>
<path d="M0 0 C13.01707004 10.96683315 22.14204773 26.74597209 24.71875 43.66796875 C26.66044331 66.67164087 23.43514731 88.19335149 8.78125 106.8203125 C-3.03864293 120.54784637 -19.03631286 128.06953674 -37 130 C-56.48397087 131.43908584 -76.7756747 128.64443552 -92.18359375 115.6484375 C-94.55165203 113.49936095 -96.82467206 111.34706436 -99 109 C-99.53109375 108.4740625 -100.0621875 107.948125 -100.609375 107.40625 C-113.8503019 93.57944137 -118.35168764 73.64823724 -118 55 C-116.85802083 34.72986965 -109.32443314 17.37451857 -95 3 C-94.38640625 2.36320312 -93.7728125 1.72640625 -93.140625 1.0703125 C-68.65898549 -22.46972549 -25.67623522 -19.26660234 0 0 Z M-79.75 23.75 C-88.28908868 34.20643036 -91.70856353 47.14761749 -91.3515625 60.53515625 C-89.82214654 75.60840018 -84.95534252 88.21144452 -73 98 C-61.61926586 105.34298545 -48.96856485 106.41221335 -35.71875 104.53515625 C-24.32599041 102.05400113 -15.83571492 96.43907183 -9 87 C-0.8982401 73.88875497 -0.12939865 58.08919363 -2.65234375 43.1328125 C-5.85849049 31.65673362 -12.0344123 21.74489251 -22.34765625 15.6015625 C-41.15157323 5.54568108 -64.88048737 7.92322261 -79.75 23.75 Z " fill="#363636" transform="translate(947,71)"/>
<path d="M0 0 C4.10640089 3.52946853 7.17436649 8.19365256 9.9375 12.8125 C9.9375 13.4725 9.9375 14.1325 9.9375 14.8125 C6.70072296 16.54680616 3.44640955 18.24520124 0.1875 19.9375 C-1.19308594 20.67806641 -1.19308594 20.67806641 -2.6015625 21.43359375 C-3.93574219 22.12001953 -3.93574219 22.12001953 -5.296875 22.8203125 C-6.52229004 23.46444092 -6.52229004 23.46444092 -7.77246094 24.12158203 C-10.0625 24.8125 -10.0625 24.8125 -12.26660156 24.02026367 C-14.06887097 22.80821545 -15.51844523 21.52394989 -17.0625 20 C-26.85171426 11.35497961 -39.5734923 10.04981251 -52.0625 10.8125 C-59.06661371 12.08427499 -65.20392859 14.47750002 -69.9375 20 C-71.8994424 24.90485601 -71.56528247 29.66424765 -70.375 34.75 C-67.04863902 39.97713868 -57.37696366 40.89882772 -51.57226562 42.28466797 C-46.60705398 43.32890801 -41.57991577 44.00740001 -36.5625 44.75 C-19.9245248 47.26456791 -4.01510199 50.95072125 7.24609375 64.44140625 C14.42773003 74.50896566 15.41382358 86.67931177 13.4765625 98.6640625 C10.45797243 109.85060219 4.11241372 118.36833703 -5.6796875 124.43359375 C-24.05033374 134.41547606 -47.84383674 136.27883965 -68.0625 131.1875 C-83.29740542 126.52607371 -94.32234638 119.01077076 -102.78515625 105.390625 C-104.06124218 102.81503871 -104.55764638 100.62278338 -105.0625 97.8125 C-101.60765902 95.97252803 -98.1480752 94.14166118 -94.6875 92.3125 C-93.70265625 91.78785156 -92.7178125 91.26320313 -91.703125 90.72265625 C-90.29160156 89.97822266 -90.29160156 89.97822266 -88.8515625 89.21875 C-87.98225098 88.75791016 -87.11293945 88.29707031 -86.21728516 87.82226562 C-84.0625 86.8125 -84.0625 86.8125 -82.0625 86.8125 C-81.12780755 88.31872413 -80.26521066 89.86993623 -79.4375 91.4375 C-74.1488387 100.46008361 -66.90665576 103.94312724 -57.0625 106.8125 C-45.28195066 109.76252148 -31.98283516 108.37688345 -21.125 103.0625 C-16.6889538 99.80336401 -14.50883913 96.71600507 -13.68359375 91.34765625 C-13.49182478 87.23390248 -13.84950519 84.32562387 -15.4375 80.5 C-23.61688044 72.12587241 -35.52141808 70.7485328 -46.62109375 69.140625 C-63.13985755 66.74679699 -80.86678254 63.99874089 -92.0625 50.3125 C-98.9840846 40.57591688 -100.56827485 29.80886667 -98.6015625 18.05859375 C-95.58604539 6.72379707 -88.99913105 -0.23593986 -79.0625 -6.1875 C-53.27362938 -19.62283855 -23.28072835 -16.62909168 0 0 Z " fill="#363636" transform="translate(467.0625,68.1875)"/>
<path d="M0 0 C1.07878418 0.01047363 2.15756836 0.02094727 3.26904297 0.03173828 C5.01894531 0.04140625 5.01894531 0.04140625 6.80419922 0.05126953 C8.02751953 0.06802734 9.25083984 0.08478516 10.51123047 0.10205078 C11.74228516 0.11107422 12.97333984 0.12009766 14.24169922 0.12939453 C17.29006862 0.1530253 20.33805429 0.18597024 23.38623047 0.22705078 C28.11192049 9.18445626 32.02819489 18.36055053 35.81896973 27.74102783 C37.5647912 32.06061564 39.32655115 36.37371281 41.08544922 40.68798828 C41.44393951 41.56860931 41.80242981 42.44923035 42.17178345 43.35653687 C45.7780997 52.20868117 49.45108514 61.03249583 53.13623047 69.85205078 C54.37344634 72.81549366 55.6103069 75.7790848 56.84716797 78.74267578 C57.14548019 79.45728973 57.44379242 80.17190369 57.75114441 80.90817261 C62.20092127 91.57079807 66.61812633 102.2468667 71.02392578 112.92773438 C72.3888109 116.23330025 73.75850069 119.53684901 75.12841797 122.84033203 C75.96459328 124.86497342 76.80054377 126.88970767 77.63623047 128.91455078 C78.01956543 129.83606934 78.40290039 130.75758789 78.79785156 131.70703125 C79.14154785 132.54250488 79.48524414 133.37797852 79.83935547 134.23876953 C80.1400293 134.96539795 80.44070313 135.69202637 80.75048828 136.44067383 C81.38623047 138.22705078 81.38623047 138.22705078 81.38623047 140.22705078 C71.48623047 140.22705078 61.58623047 140.22705078 51.38623047 140.22705078 C48.36642352 132.97951409 45.37150141 125.74660364 42.52294922 118.43408203 C42.17351761 117.54028839 41.824086 116.64649475 41.46406555 115.72561646 C40.33267724 112.83075807 39.20318428 109.93516441 38.07373047 107.03955078 C37.2828304 105.01484743 36.49181306 102.99018989 35.70068359 100.96557617 C33.66531207 95.75568785 31.63160257 90.54515272 29.59857178 85.33435059 C28.405094 82.27539908 27.21137677 79.21654114 26.01757812 76.15771484 C19.8416906 60.33311551 19.8416906 60.33311551 17.33813477 53.91186523 C17.01822067 53.09152802 16.69830658 52.2711908 16.36869812 51.42599487 C15.77648623 49.90736836 15.184442 48.38867645 14.59260559 46.86990356 C13.20645374 43.31575933 11.81001189 39.76629971 10.38623047 36.22705078 C6.07136821 45.16902678 2.57600144 54.38449442 -0.9161377 63.66772461 C-2.66227853 68.30792242 -4.42124568 72.94325126 -6.18017578 77.57861328 C-6.54235199 78.53354675 -6.9045282 79.48848022 -7.27767944 80.47235107 C-11.2442916 90.91479001 -15.29651949 101.32347458 -19.36376953 111.72705078 C-19.70147369 112.59154846 -20.03917786 113.45604614 -20.38711548 114.34674072 C-21.35253735 116.81755669 -22.31880781 119.28803813 -23.28564453 121.75830078 C-23.56419785 122.47021576 -23.84275116 123.18213074 -24.12974548 123.9156189 C-26.26556426 129.3634222 -28.44041576 134.79366634 -30.61376953 140.22705078 C-40.84376953 140.22705078 -51.07376953 140.22705078 -61.61376953 140.22705078 C-57.11376953 129.47705078 -57.11376953 129.47705078 -55.75244141 126.23193359 C-53.03210781 119.71721149 -50.38667832 113.17614627 -47.77392578 106.61767578 C-43.78763866 96.61708691 -39.6860275 86.66700605 -35.55126953 76.72705078 C-34.81500959 74.9543036 -34.07884616 73.18151633 -33.34277344 71.40869141 C-27.80729416 58.08066954 -22.25863519 44.7580983 -16.69946289 31.43994141 C-16.41334641 30.75403931 -16.12722992 30.06813721 -15.83244324 29.3614502 C-15.2713413 28.01672808 -14.70967875 26.67223974 -14.14741516 25.32800293 C-12.64308397 21.72487396 -11.16047775 18.11409882 -9.70068359 14.49267578 C-9.22624313 13.32170349 -9.22624313 13.32170349 -8.74221802 12.1270752 C-8.13333837 10.62221034 -7.52854917 9.1156821 -6.92843628 7.6072998 C-3.98385287 0.34606605 -3.98385287 0.34606605 0 0 Z " fill="#12BCBC" transform="translate(557.61376953125,56.77294921875)"/>
<path d="M0 0 C21.12 0 42.24 0 64 0 C64.020625 10.374375 64.04125 20.74875 64.0625 31.4375 C64.071604 34.71743896 64.08070801 37.99737793 64.09008789 41.37670898 C64.09300676 43.95817016 64.09555538 46.53963178 64.09765625 49.12109375 C64.10026962 49.79608414 64.102883 50.47107452 64.10557556 51.16651917 C64.11285661 53.14542498 64.1133384 55.12435228 64.11352539 57.10327148 C64.115746 58.22023911 64.11796661 59.33720673 64.12025452 60.48802185 C64 63 64 63 63 64 C61.07238183 64.09920863 59.14110646 64.12799365 57.2109375 64.12939453 C55.9729541 64.13254669 54.7349707 64.13569885 53.45947266 64.13894653 C52.09798141 64.13715675 50.73649049 64.1351058 49.375 64.1328125 C47.98876936 64.13348559 46.60253883 64.13445566 45.21630859 64.13571167 C42.30760578 64.1371884 39.39893363 64.1350349 36.49023438 64.13037109 C32.75403402 64.12467381 29.01790548 64.12795294 25.28170776 64.13394356 C22.41820734 64.13754985 19.55472407 64.13641027 16.69122314 64.13381577 C15.31325268 64.13314668 13.93528068 64.13397426 12.55731201 64.13629532 C10.63456246 64.13882292 8.71180748 64.13429024 6.7890625 64.12939453 C5.14478271 64.12820114 5.14478271 64.12820114 3.46728516 64.12698364 C1 64 1 64 0 63 C-0.0940067 61.03630847 -0.11743381 59.06920801 -0.11352539 57.10327148 C-0.11340454 55.82432007 -0.11328369 54.54536865 -0.11315918 53.22766113 C-0.10812271 51.85880485 -0.10295607 50.48994904 -0.09765625 49.12109375 C-0.09664917 47.88363403 -0.09564209 46.64617432 -0.09460449 45.37121582 C-0.08935285 40.72663452 -0.07539175 36.08206638 -0.0625 31.4375 C-0.041875 21.063125 -0.02125 10.68875 0 0 Z " fill="#1992BF" transform="translate(129,142)"/>
<path d="M0 0 C16.17 0 32.34 0 49 0 C49 17.49 49 34.98 49 53 C32.83 53 16.66 53 0 53 C0 35.51 0 18.02 0 0 Z " fill="#6BC190" transform="translate(37,243)"/>
<path d="M0 0 C16.83 0 33.66 0 51 0 C51 16.17 51 32.34 51 49 C34.17 49 17.34 49 0 49 C0 32.83 0 16.66 0 0 Z " fill="#F9AD19" transform="translate(233,51)"/>
<path d="M0 0 C12.54 0 25.08 0 38 0 C38.020625 5.919375 38.04125 11.83875 38.0625 17.9375 C38.071604 19.80784912 38.08070801 21.67819824 38.09008789 23.60522461 C38.09300709 25.07926359 38.09555564 26.55330337 38.09765625 28.02734375 C38.10277222 28.79953247 38.10788818 29.57172119 38.11315918 30.36730957 C38.11346974 32.24525187 38.06233569 34.12309253 38 36 C37 37 37 37 33.48999023 37.11352539 C31.92951579 37.11327431 30.3690358 37.1077134 28.80859375 37.09765625 C28.08224731 37.09664917 27.35590088 37.09564209 26.60754395 37.09460449 C23.88417999 37.08935716 21.16083847 37.075396 18.4375 37.0625 C12.353125 37.041875 6.26875 37.02125 0 37 C0 24.79 0 12.58 0 0 Z " fill="#13BBBB" transform="translate(100,249)"/>
<path d="M0 0 C11.55 0 23.1 0 35 0 C35 11.88 35 23.76 35 36 C23.45 36 11.9 36 0 36 C0 24.12 0 12.24 0 0 Z " fill="#BA1C8B" transform="translate(186,62)"/>
<path d="M0 0 C10.89 0 21.78 0 33 0 C33 11.88 33 23.76 33 36 C22.11 36 11.22 36 0 36 C0 24.12 0 12.24 0 0 Z " fill="#EA1360" transform="translate(238,113)"/>
<path d="M0 0 C10.89 0 21.78 0 33 0 C33 10.56 33 21.12 33 32 C22.11 32 11.22 32 0 32 C0 21.44 0 10.88 0 0 Z " fill="#24C4F4" transform="translate(50,198)"/>
<path d="M0 0 C10 0 10 0 13.09375 3.02734375 C13.93108789 4.3083654 14.73295602 5.61319084 15.5 6.9375 C18.07496193 11.65991192 18.07496193 11.65991192 22 15 C22.38478516 14.18789062 22.38478516 14.18789062 22.77734375 13.359375 C24.23548426 10.54558309 25.82584933 7.90233921 27.5625 5.25 C28.18253906 4.26515625 28.80257812 3.2803125 29.44140625 2.265625 C32 0 32 0 41 0 C41 12.54 41 25.08 41 38 C38.36 38 35.72 38 33 38 C32.67 30.08 32.34 22.16 32 14 C27.05 20.435 27.05 20.435 22 27 C15.58446347 25.39611587 13.67976382 20.33565754 10 15 C9.67 22.59 9.34 30.18 9 38 C6.03 38 3.06 38 0 38 C0 25.46 0 12.92 0 0 Z " fill="#12BCBC" transform="translate(838,221)"/>
<path d="M0 0 C9.57 0 19.14 0 29 0 C29 2.64 29 5.28 29 8 C22.07 8 15.14 8 8 8 C8 10.31 8 12.62 8 15 C14.93 15 21.86 15 29 15 C29 17.64 29 20.28 29 23 C22.07 23 15.14 23 8 23 C8 25.31 8 27.62 8 30 C14.93 30 21.86 30 29 30 C29 32.64 29 35.28 29 38 C19.43 38 9.86 38 0 38 C0 25.46 0 12.92 0 0 Z " fill="#12BCBC" transform="translate(446,221)"/>
<path d="M0 0 C4.94754234 2.84458286 7.84443678 7.09581034 9.625 12.4375 C10.29719419 19.87571445 10.20025187 26.28764846 5.625 32.4375 C0.95528719 36.98747658 -3.71328712 38.73075148 -10.1875 38.875 C-17.20225179 38.72850027 -21.1616865 36.76866118 -25.97265625 31.78125 C-30.41284041 25.94345912 -30.30891635 19.48592531 -29.375 12.4375 C-27.8294301 6.76434933 -24.91305496 3.53711295 -20.05859375 0.34765625 C-14.09847781 -2.87440179 -6.12502021 -2.73000901 0 0 Z M-18.5 8.8125 C-21.95248696 13.64598174 -21.86223362 17.60908273 -21.375 23.4375 C-19.98180081 27.289286 -18.74341495 28.20908273 -15.25 30.375 C-10.74258563 32.04015945 -6.70031643 31.38305739 -2.375 29.4375 C1.10715826 26.04027243 1.8904893 23.15613954 2.125 18.4375 C1.93477472 13.58675546 0.79443231 11.07302529 -2.375 7.4375 C-7.54894948 4.85052526 -14.03281228 5.41743733 -18.5 8.8125 Z " fill="#12BCBC" transform="translate(781.375,221.5625)"/>
<path d="M0 0 C9.57 0 19.14 0 29 0 C29 2.64 29 5.28 29 8 C22.07 8 15.14 8 8 8 C8 10.31 8 12.62 8 15 C14.6 15 21.2 15 28 15 C28 17.64 28 20.28 28 23 C21.4 23 14.8 23 8 23 C8 25.31 8 27.62 8 30 C14.93 30 21.86 30 29 30 C29 32.64 29 35.28 29 38 C19.43 38 9.86 38 0 38 C0 25.46 0 12.92 0 0 Z " fill="#12BCBC" transform="translate(597,221)"/>
<path d="M0 0 C2.31235063 2.0233068 3.47843542 3.32711918 4.5 6.1875 C1.035 7.6725 1.035 7.6725 -2.5 9.1875 C-3.04140625 8.69636719 -3.5828125 8.20523438 -4.140625 7.69921875 C-7.07241283 5.8207388 -8.80299691 5.87689275 -12.25 6 C-13.23484375 6.02707031 -14.2196875 6.05414063 -15.234375 6.08203125 C-15.98203125 6.11683594 -16.7296875 6.15164062 -17.5 6.1875 C-17.17 7.8375 -16.84 9.4875 -16.5 11.1875 C-15.48679687 11.41824219 -14.47359375 11.64898437 -13.4296875 11.88671875 C0.79058418 15.27797906 0.79058418 15.27797906 4.5 20.1875 C6.05879335 24.86388004 6.01362462 28.07807082 3.9375 32.5625 C0.33667864 36.44030762 -2.22085296 37.97845721 -7.56640625 38.46875 C-18.67923431 38.77217193 -18.67923431 38.77217193 -23.5 35.1875 C-25.9375 32.6875 -25.9375 32.6875 -27.5 30.1875 C-27.17 29.1975 -26.84 28.2075 -26.5 27.1875 C-23.4375 26 -23.4375 26 -20.5 25.1875 C-20.025625 25.826875 -19.55125 26.46625 -19.0625 27.125 C-15.48793184 30.00209145 -12.01787194 30.22910103 -7.5 30.1875 C-6.015 29.6925 -6.015 29.6925 -4.5 29.1875 C-4.17 27.5375 -3.84 25.8875 -3.5 24.1875 C-6.88422722 22.24301737 -10.11988786 21.59438818 -13.9375 20.875 C-19.39572664 19.67431266 -22.23878377 18.72990832 -25.5 14.1875 C-26.91000664 11.36748673 -26.74548451 9.31742745 -26.5 6.1875 C-24.6633386 2.03084525 -22.5820476 0.13133219 -18.5 -1.8125 C-12.44394362 -3.88886219 -5.56480444 -2.88177373 0 0 Z " fill="#12BCBC" transform="translate(953.5,221.8125)"/>
<path d="M0 0 C1.28552374 0.81048782 2.56246632 1.63577919 3.8125 2.5 C2.046875 6.328125 2.046875 6.328125 -0.0625 7.875 C-2.1875 8.5 -2.1875 8.5 -4.04296875 7.55859375 C-7.64795779 5.77908185 -11.25634588 6.05774516 -15.1875 6.5 C-18.76334027 7.86947074 -19.82124065 8.78412945 -21.5625 12.1875 C-22.61303688 17.75534545 -22.35933226 21.68555004 -19.25 26.5 C-14.88851595 29.34831611 -11.25734231 29.13878396 -6.1875 28.5 C-2.7260946 27.62899451 -2.7260946 27.62899451 -0.1875 26.5 C1.1325 27.82 2.4525 29.14 3.8125 30.5 C2.83308159 33.65590375 1.79890915 34.50827269 -1.0625 36.25 C-6.88261775 38.43710062 -13.77683743 38.84325933 -19.59765625 36.55078125 C-24.61355611 33.57874339 -28.05011105 30.05912515 -30.4375 24.6875 C-32.07985542 17.70748946 -31.58393467 12.82439559 -28.1875 6.5 C-21.47585012 -3.19460538 -10.40700634 -5.7689232 0 0 Z " fill="#12BCBC" transform="translate(703.1875,222.5)"/>
<path d="M0 0 C10.56 0 21.12 0 32 0 C32 2.31 32 4.62 32 7 C28.04 7 24.08 7 20 7 C20 17.23 20 27.46 20 38 C17.36 38 14.72 38 12 38 C12 27.77 12 17.54 12 7 C8.04 7 4.08 7 0 7 C0 4.69 0 2.38 0 0 Z " fill="#12BCBC" transform="translate(368,221)"/>
<path d="M0 0 C2.64 0 5.28 0 8 0 C8 10.23 8 20.46 8 31 C14.27 31 20.54 31 27 31 C27 33.31 27 35.62 27 38 C18.09 38 9.18 38 0 38 C0 25.46 0 12.92 0 0 Z " fill="#12BCBC" transform="translate(523,221)"/>
<path d="M0 0 C5.61 0 11.22 0 17 0 C17 1.32 17 2.64 17 4 C13.04 4 9.08 4 5 4 C5 5.32 5 6.64 5 8 C8.63 8 12.26 8 16 8 C16 9.65 16 11.3 16 13 C12.37 13 8.74 13 5 13 C5 13.99 5 14.98 5 16 C8.96 16 12.92 16 17 16 C17 17.98 17 19.96 17 22 C11.39 22 5.78 22 0 22 C0 14.74 0 7.48 0 0 Z " fill="#252525" transform="translate(777,277)"/>
<path d="M0 0 C5.19130616 1.03826123 5.73375591 1.25934554 8.8125 5.0625 C9.41707031 5.79597656 10.02164063 6.52945312 10.64453125 7.28515625 C11.09183594 7.85105469 11.53914062 8.41695313 12 9 C12.33 6.03 12.66 3.06 13 0 C14.65 0 16.3 0 18 0 C18 7.26 18 14.52 18 22 C13.11852312 20.77963078 12.53741888 19.47925737 9.75 15.4375 C9.04359375 14.42558594 8.3371875 13.41367187 7.609375 12.37109375 C7.07828125 11.58863281 6.5471875 10.80617188 6 10 C5.67 13.96 5.34 17.92 5 22 C3.35 22 1.7 22 0 22 C0 14.74 0 7.48 0 0 Z " fill="#252525" transform="translate(751,277)"/>
<path d="M0 0 C5.28 0 10.56 0 16 0 C16 1.32 16 2.64 16 4 C12.37 4 8.74 4 5 4 C5 5.32 5 6.64 5 8 C8.63 8 12.26 8 16 8 C16 9.65 16 11.3 16 13 C12.37 13 8.74 13 5 13 C5 13.99 5 14.98 5 16 C8.63 16 12.26 16 16 16 C16 17.98 16 19.96 16 22 C10.72 22 5.44 22 0 22 C0 14.74 0 7.48 0 0 Z " fill="#252525" transform="translate(633,277)"/>
<path d="M0 0 C3.03522895 1.63435405 5.28352297 3.055553 7.375 5.8125 C8.74302563 10.60058971 8.58540192 13.93012753 6.1875 18.3125 C3.2761231 21.88933448 1.8089329 22.90717163 -2.8125 23.4375 C-7.64484674 23.33942654 -9.69263085 21.38803669 -13 18 C-14.74348951 14.51302098 -14.58082725 10.80409937 -14 7 C-10.83699299 1.08920699 -6.51331125 -0.63855993 0 0 Z M-7.875 6.0625 C-9.64273274 9.1069286 -9.36823916 11.5631012 -9 15 C-8.10242444 17.14780077 -8.10242444 17.14780077 -6 18 C-2.42243314 18.00082535 -2.42243314 18.00082535 1 17 C3.31282587 13.53076119 3.42478586 12.07794425 3 8 C2 6 2 6 0 5 C-3.11811483 4.61023565 -5.11019567 4.49577755 -7.875 6.0625 Z " fill="#252525" transform="translate(592,276)"/>
<path d="M0 0 C5 0 5 0 7.01953125 1.96875 C7.61121094 2.8040625 8.20289063 3.639375 8.8125 4.5 C9.41707031 5.3353125 10.02164063 6.170625 10.64453125 7.03125 C11.09183594 7.6809375 11.53914062 8.330625 12 9 C12.33 6.03 12.66 3.06 13 0 C14.65 0 16.3 0 18 0 C18 7.26 18 14.52 18 22 C17.01 22 16.02 22 15 22 C13.30369687 20.03123367 11.80463882 18.11326838 10.3125 16 C9.89677734 15.42765625 9.48105469 14.8553125 9.05273438 14.265625 C8.02643139 12.85003468 7.01206601 11.42580369 6 10 C5.67 13.96 5.34 17.92 5 22 C3.35 22 1.7 22 0 22 C0 14.74 0 7.48 0 0 Z " fill="#252525" transform="translate(724,277)"/>
<path d="M0 0 C3.27634314 2.67456583 4.63024101 4.12149228 5.4375 8.22265625 C5.65293291 12.25529101 5.33732427 14.45330205 3.1875 17.9375 C-0.50458866 21.41861216 -2.88423383 22.45196825 -8 22.3203125 C-11.92209319 21.69216476 -14.07160313 19.28207187 -16.3125 16.1875 C-17.33529387 12.93315587 -17.35124367 10.39535546 -17 7 C-12.98054769 -0.60824901 -8.12587742 -2.42908791 0 0 Z M-10.875 5.0625 C-12.66235303 8.14071911 -12.43386742 10.52906068 -12 14 C-9.89172636 16.42061048 -8.59654522 16.9127007 -5.4375 17.375 C-3.00850499 17.15462115 -3.00850499 17.15462115 -1.1875 15.9375 C0.67036623 12.90624457 0.37133265 10.46577141 0 7 C-0.98048938 4.93597315 -0.98048938 4.93597315 -3 4 C-6.11811483 3.61023565 -8.11019567 3.49577755 -10.875 5.0625 Z " fill="#252525" transform="translate(711,277)"/>
<path d="M0 0 C10.546875 -0.48828125 10.546875 -0.48828125 14 0 C16.45703125 2.32421875 16.45703125 2.32421875 18 5 C17.93170718 8.41464098 17.6351705 10.2377954 15.4375 12.875 C14.7259375 13.431875 14.7259375 13.431875 14 14 C14.825 14.763125 15.65 15.52625 16.5 16.3125 C19 19 19 19 19 22 C16.3125 22.4375 16.3125 22.4375 13 22 C11.45124266 20.28346062 10.3307568 18.53162002 9.17578125 16.53125 C8.78777344 16.0259375 8.39976562 15.520625 8 15 C7.01 15 6.02 15 5 15 C5 17.31 5 19.62 5 22 C3.35 22 1.7 22 0 22 C0 14.74 0 7.48 0 0 Z M4 4 C4 5.98 4 7.96 4 10 C7.41656024 10.16677282 7.41656024 10.16677282 11 10 C11.66 9.34 12.32 8.68 13 8 C13 7.01 13 6.02 13 5 C10.04335481 3.5216774 7.25770263 3.93967217 4 4 Z " fill="#252525" transform="translate(608,277)"/>
<path d="M0 0 C0.99 0.66 1.98 1.32 3 2 C3 2.66 3 3.32 3 4 C0.08903079 5.97945906 -0.9747827 6.00398168 -4.5625 5.4375 C-7.85312994 4.69466488 -7.85312994 4.69466488 -10 6 C-11.55854182 9.11708365 -10.68784644 11.6858308 -10 15 C-5.98195309 15.84098656 -2.98196457 16.05404945 1 15 C1.66 16.32 2.32 17.64 3 19 C0.38660835 21.72701737 -1.78492642 22.28530943 -5.4375 22.4375 C-8.77608901 22.32218689 -9.97044978 22.01760438 -12.9375 20.25 C-15.99092049 16.91899583 -16.87145424 15.15691184 -17.375 10.625 C-16.92573223 6.2820782 -15.8337428 4.29326866 -13 1 C-8.63852663 -1.78649688 -4.86972497 -0.94252741 0 0 Z " fill="#252525" transform="translate(569,277)"/>
<path d="M0 0 C2.875 1.5 2.875 1.5 5 3 C4.34 4.32 3.68 5.64 3 7 C2.06027344 6.85691406 2.06027344 6.85691406 1.1015625 6.7109375 C0.28429687 6.60007812 -0.53296875 6.48921875 -1.375 6.375 C-2.18710937 6.25898438 -2.99921875 6.14296875 -3.8359375 6.0234375 C-4.55007813 6.01570313 -5.26421875 6.00796875 -6 6 C-8.3721969 7.94458314 -8.3721969 7.94458314 -8.3125 11.5 C-8.209375 12.655 -8.10625 13.81 -8 15 C-4.75073878 17.16617415 -4.4014758 17.21335669 -0.8125 16.625 C0.445625 16.41875 1.70375 16.2125 3 16 C3.66 17.32 4.32 18.64 5 20 C2.37928071 22.62071929 0.87396907 23.01626206 -2.875 23.5 C-7.64239584 23.33960164 -9.73679498 21.34279539 -13 18 C-14.74348951 14.51302098 -14.58082725 10.80409937 -14 7 C-10.80881671 1.03655323 -6.53991327 -0.52319306 0 0 Z " fill="#252525" transform="translate(815,276)"/>
<path d="M0 0 C0.680625 0.07863281 1.36125 0.15726562 2.0625 0.23828125 C4 0.6875 4 0.6875 7 2.6875 C7 3.3475 7 4.0075 7 4.6875 C3.20839464 7.26579164 0.35627067 6.41354511 -4 5.6875 C-4.99 6.1825 -4.99 6.1825 -6 6.6875 C-6.85056945 10.24442677 -7.16909807 12.18020578 -6 15.6875 C-0.44506076 16.71453748 -0.44506076 16.71453748 5 15.6875 C5.66 17.0075 6.32 18.3275 7 19.6875 C4.43745398 22.36146107 2.2131697 23.01401582 -1.375 23.25 C-4.88136056 23.11692031 -6.86305915 22.525078 -9.5 20.1875 C-12.64289386 16.48431308 -13.07636241 13.49833206 -13 8.6875 C-11.55938822 5.4461235 -9.72730785 2.96025655 -7 0.6875 C-4.09583903 -0.28055366 -2.92345144 -0.37096827 0 0 Z " fill="#252525" transform="translate(681,276.3125)"/>
<path d="M0 0 C5.94 0 11.88 0 18 0 C18 1.32 18 2.64 18 4 C15.69 4 13.38 4 11 4 C11 9.94 11 15.88 11 22 C9.35 22 7.7 22 6 22 C6 16.06 6 10.12 6 4 C4.02 4 2.04 4 0 4 C0 2.68 0 1.36 0 0 Z " fill="#252525" transform="translate(826,277)"/>
</svg>
